<svg width="1800" height="1800" viewBox="0 0 1800 1800" fill="none" xmlns="http://www.w3.org/2000/svg">
<path d="M900 28C1381.59 28 1772 418.408 1772 900C1772 1381.59 1381.59 1772 900 1772C418.408 1772 28 1381.59 28 900C28 418.408 418.408 28 900 28Z" fill="#212518" stroke="#A1D321" stroke-width="56"/>
<path fill-rule="evenodd" clip-rule="evenodd" d="M1329.11 365.617C1352.15 347.7 1382.79 344.983 1408.34 358.59C1433.89 372.198 1450 399.815 1450 430.001V1198H1285.52L900 898.163L501.724 1207.92V1450H432.026H350V430.001L350.012 428.587C350.506 398.955 366.511 371.986 391.663 358.59C417.214 344.983 447.853 347.7 470.89 365.617L900 699.354L1329.11 365.617ZM501.724 1009.11L772.188 798.759L501.724 588.406V1009.11ZM1027.81 798.759L1298.28 1009.11V588.406L1027.81 798.759Z" fill="#F4F4F4"/>
<path d="M1450 1187.5C1450 1332.47 1338.55 1450 1201.08 1450C1063.6 1450 952.155 1332.47 952.155 1187.5V1111C952.155 1066.82 986.12 1031 1028.02 1031C1069.91 1031 1103.88 1066.82 1103.88 1111V1187.5C1103.88 1244.11 1147.4 1290 1201.08 1290C1254.76 1290 1298.28 1244.11 1298.28 1187.5V588.443L1450 470.745V1187.5Z" fill="#A1D321"/>
<path d="M1031.34 796L1404.14 1089.53L1371.9 1265.03L899.832 898.262L1031.34 796Z" fill="#A1D321"/>
</svg>
