<svg width="435" height="325" viewBox="0 0 435 325" fill="none" xmlns="http://www.w3.org/2000/svg">
<path d="M399.503 211.777L247.475 59.7489C233.806 46.0805 233.806 23.9198 247.475 10.2514C261.143 -3.41693 283.304 -3.41693 296.972 10.2514L424.251 137.531C437.92 151.199 437.92 173.36 424.251 187.028L399.503 211.777Z" fill="#D9D9D9"/>
<path d="M424.251 137.531C437.92 151.199 437.92 173.36 424.251 187.028L296.972 314.307C283.304 327.976 261.143 327.976 247.475 314.307C233.806 300.639 233.806 278.478 247.475 264.81L399.503 112.782L424.251 137.531Z" fill="#D9D9D9"/>
<path d="M350 197.056L35 197.056C15.6701 197.056 1.25165e-05 181.386 1.42064e-05 162.056C1.58963e-05 142.726 15.6701 127.056 35 127.056L350 127.056L350 197.056Z" fill="#D9D9D9"/>
</svg>
