<svg width="600" height="400" viewBox="0 0 600 400" fill="none" xmlns="http://www.w3.org/2000/svg">
<path d="M300 100C355.228 100 400 144.772 400 200C400 255.228 355.228 300 300 300C244.772 300 200 255.228 200 200C200 194.778 200.4 189.65 201.172 184.644C211.666 194.185 225.609 200 240.909 200C273.544 200 300 173.544 300 140.909C300 125.609 294.185 111.666 284.644 101.172C289.65 100.4 294.778 100 300 100Z" fill="#D9D9D9"/>
<path d="M300 0C465.685 0 600 200 600 200C600 200 465.685 400 300 400C134.315 400 0 200 0 200C0 200 134.315 0 300 0ZM300 50C217.157 50 150 117.157 150 200C150 282.843 217.157 350 300 350C382.843 350 450 282.843 450 200C450 117.157 382.843 50 300 50Z" fill="#D9D9D9"/>
</svg>
