<svg width="635" height="389" viewBox="0 0 635 389" fill="none" xmlns="http://www.w3.org/2000/svg">
<path d="M592.433 0C606.976 18.0539 615 30 615 30C615 30 480.685 230 315 230C149.315 230 15 30 15 30C15 30 23.0233 18.0536 37.5664 0C82.528 55.8145 189.809 170 315 170C440.191 170 547.471 55.8147 592.433 0Z" fill="#D9D9D9"/>
<path d="M295.711 228.42H335.711V368.42C335.711 379.466 326.757 388.42 315.711 388.42V388.42C304.665 388.42 295.711 379.466 295.711 368.42V228.42Z" fill="#D9D9D9"/>
<path d="M192.533 195.311L228.786 212.215L169.619 339.098C164.951 349.109 153.051 353.44 143.04 348.772V348.772C133.03 344.104 128.699 332.204 133.367 322.194L192.533 195.311Z" fill="#D9D9D9"/>
<path d="M102.846 129.423L133.487 155.134L43.4972 262.381C36.3972 270.842 23.7821 271.946 15.3206 264.846V264.846C6.85908 257.746 5.7554 245.131 12.8554 236.669L102.846 129.423Z" fill="#D9D9D9"/>
<path d="M401.814 211.986L438.067 195.082L497.233 321.965C501.901 331.975 497.57 343.875 487.56 348.543V348.543C477.549 353.211 465.649 348.88 460.981 338.869L401.814 211.986Z" fill="#D9D9D9"/>
<path d="M500.711 151.708L531.353 125.997L621.343 233.243C628.443 241.704 627.339 254.319 618.878 261.419V261.419C610.416 268.519 597.801 267.416 590.701 258.954L500.711 151.708Z" fill="#D9D9D9"/>
</svg>
