<svg width="450" height="336" viewBox="0 0 450 336" fill="none" xmlns="http://www.w3.org/2000/svg">
<path d="M0 36C0 16.1178 16.1177 0 36 0H414C433.882 0 450 16.1178 450 36C450 55.8823 433.882 72 414 72H36C16.1177 72 0 55.8823 0 36Z" fill="#D9D9D9"/>
<path d="M0 300C0 280.118 16.1177 264 36 264H414C433.882 264 450 280.118 450 300C450 319.882 433.882 336 414 336H36C16.1177 336 0 319.882 0 300Z" fill="#D9D9D9"/>
<path d="M36 132C16.1177 132 0 148.118 0 168C0 187.882 16.1177 204 36 204H414C433.882 204 450 187.882 450 168C450 148.118 433.882 132 414 132H36Z" fill="#D9D9D9"/>
</svg>
