<svg width="640" height="626" viewBox="0 0 640 626" fill="none" xmlns="http://www.w3.org/2000/svg">
<path d="M241.016 29.4683C244.373 10.432 262.526 -2.27893 281.562 1.07768C300.598 4.43429 313.309 22.5873 309.953 41.6236L218.279 561.531C214.922 580.568 196.769 593.278 177.733 589.922C158.697 586.565 145.986 568.412 149.342 549.376L241.016 29.4683Z" fill="#D9D9D9"/>
<path d="M422.445 64.3159C425.801 45.2796 443.954 32.5687 462.991 35.9253C482.027 39.2819 494.738 57.435 491.381 76.4713L399.708 596.379C396.351 615.415 378.198 628.126 359.162 624.77C340.125 621.413 327.414 603.26 330.771 584.224L422.445 64.3159Z" fill="#D9D9D9"/>
<path d="M605 192.553C624.33 192.553 640 208.223 640 227.553C640 246.883 624.33 262.553 605 262.553L75 262.553C55.67 262.553 40 246.883 40 227.553C40 208.223 55.67 192.553 75 192.553L605 192.553Z" fill="#D9D9D9"/>
<path d="M565 362.553C584.33 362.553 600 378.223 600 397.553C600 416.883 584.33 432.553 565 432.553L35 432.553C15.67 432.553 -8.4494e-07 416.883 0 397.553C8.4494e-07 378.223 15.67 362.553 35 362.553L565 362.553Z" fill="#D9D9D9"/>
</svg>
