<svg width="650" height="650" viewBox="0 0 650 650" fill="none" xmlns="http://www.w3.org/2000/svg">
<path d="M344.643 80.3221C333.37 70.5593 316.637 70.5593 305.364 80.3221L39.4205 310.636C18.4235 328.82 31.2836 363.314 59.0602 363.314H124.004C124.556 363.314 125.004 363.761 125.004 364.314V536.314C125.004 558.405 142.912 576.314 165.004 576.314H245.004C261.572 576.314 275.004 562.882 275.004 546.314V456.314C275.004 439.745 288.435 426.314 305.004 426.314H345.004C361.572 426.314 375.004 439.745 375.004 456.314V546.314C375.004 562.882 388.435 576.314 405.004 576.314H485.004C507.095 576.314 525.004 558.405 525.004 536.314V364.314C525.004 363.761 525.451 363.314 526.004 363.314H590.947C618.724 363.314 631.584 328.82 610.587 310.636L344.643 80.3221Z" stroke="#D9D9D9" stroke-width="30"/>
</svg>
