<svg width="592" height="504" viewBox="0 0 592 504" fill="none" xmlns="http://www.w3.org/2000/svg">
<path d="M315.643 7.32211C304.37 -2.4407 287.637 -2.4407 276.364 7.32211L10.4205 237.636C-10.5765 255.82 2.28356 290.314 30.0602 290.314H95.0035C95.5558 290.314 96.0035 290.761 96.0035 291.314V463.314C96.0035 485.405 113.912 503.314 136.004 503.314H216.004C232.572 503.314 246.004 489.882 246.004 473.314V383.314C246.004 366.745 259.435 353.314 276.004 353.314H316.004C332.572 353.314 346.004 366.745 346.004 383.314V473.314C346.004 489.882 359.435 503.314 376.004 503.314H456.004C478.095 503.314 496.004 485.405 496.004 463.314V291.314C496.004 290.761 496.451 290.314 497.004 290.314H561.947C589.724 290.314 602.584 255.82 581.587 237.636L315.643 7.32211Z" fill="#D9D9D9"/>
</svg>
