<svg width="300" height="361" viewBox="0 0 300 361" fill="none" xmlns="http://www.w3.org/2000/svg">
<path d="M90 170.547H50V99.5C50 44.5477 94.5477 2.11879e-06 149.5 0C204.452 5.9215e-06 249 44.5477 249 99.5V170.547H209V99.5C209 66.6391 182.361 40 149.5 40C116.639 40 90 66.6391 90 99.5V170.547Z" fill="#D9D9D9"/>
<path d="M270 161C286.568 161 300 174.432 300 191V331C300 347.569 286.569 361 270 361H30C13.4315 361 0 347.569 0 331V191C0.000103522 174.432 13.4315 161 30 161H270ZM150 213.389C137.056 213.389 126.563 223.882 126.562 236.826V284.425C126.563 297.369 137.056 307.862 150 307.862C162.944 307.862 173.437 297.369 173.438 284.425V236.826C173.438 223.882 162.944 213.389 150 213.389Z" fill="#D9D9D9"/>
</svg>
