<svg width="502" height="503" viewBox="0 0 502 503" fill="none" xmlns="http://www.w3.org/2000/svg">
<path d="M141.421 317L185.682 361.261L66.3917 480.552C54.1693 492.774 34.3529 492.774 22.1306 480.552V480.552C9.90819 468.33 9.9082 448.513 22.1306 436.291L141.421 317Z" fill="#D9D9D9"/>
<circle cx="302" cy="200" r="175" stroke="#D9D9D9" stroke-width="50"/>
<path d="M401 190C409.284 190 416.095 196.748 415.105 204.972C408.304 261.487 363.487 306.304 306.972 313.105C298.748 314.095 292 307.284 292 299C292 290.716 298.761 284.126 306.942 282.819C346.889 276.439 378.439 244.889 384.819 204.942C386.126 196.761 392.716 190 401 190Z" fill="#D9D9D9"/>
</svg>
