<svg width="646" height="647" viewBox="0 0 646 647" fill="none" xmlns="http://www.w3.org/2000/svg">
<path d="M431.511 178.283C453.776 172.367 474.124 192.715 468.208 214.98L410.254 433.106C404.316 455.453 376.396 462.965 360.047 446.615L199.876 286.445C183.526 270.095 191.039 242.175 213.386 236.237L431.511 178.283Z" fill="#D9D9D9"/>
<path d="M135.004 511.487C113.701 490.184 113.701 455.644 135.004 434.341L251.995 317.351L329.141 394.496L212.15 511.487C190.847 532.79 156.308 532.79 135.004 511.487V511.487Z" fill="#D9D9D9"/>
<path d="M646 550C646 577.614 623.614 600 596 600C568.386 600 546 577.614 546 550V110C546 104.477 541.523 100 536 100H96C68.3858 100 46 77.6142 46 50C46 22.3858 68.3858 0 96 0H546C601.228 0 646 44.7715 646 100V550Z" fill="#D9D9D9"/>
</svg>
