<svg width="500" height="500" viewBox="0 0 500 500" fill="none" xmlns="http://www.w3.org/2000/svg">
<path d="M250 0C388.071 0 500 111.929 500 250C500 388.071 388.071 500 250 500C111.929 500 0 388.071 0 250C0 111.929 111.929 0 250 0ZM138.197 403.64C169.568 426.507 208.208 440 250 440C354.934 440 440 354.934 440 250C440 208.208 426.507 169.568 403.64 138.197L138.197 403.64ZM250 60C145.066 60 60 145.066 60 250C60 291.489 73.3009 329.87 95.8672 361.117L361.117 95.8662C329.87 73.3001 291.489 60 250 60Z" fill="#D9D9D9"/>
</svg>
