<svg width="581" height="616" viewBox="0 0 581 616" fill="none" xmlns="http://www.w3.org/2000/svg">
<path d="M245.5 35H272.75C423.386 35 545.5 157.114 545.5 307.75V307.75C545.5 458.386 423.386 580.5 272.75 580.5H245.5" stroke="#D9D9D9" stroke-width="70" stroke-linecap="round"/>
<path d="M445.273 281.976C465.2 293.537 465.2 322.313 445.273 333.874L250.055 447.132C230.055 458.735 205 444.305 205 421.183L205 194.667C205 171.545 230.055 157.115 250.055 168.718L445.273 281.976Z" fill="#D9D9D9"/>
<path d="M0 307.925C0 277.798 24.4229 253.375 54.55 253.375H220V362.475H54.55C24.4229 362.475 0 338.052 0 307.925V307.925Z" fill="#D9D9D9"/>
</svg>
