<svg width="500" height="551" viewBox="0 0 500 551" fill="none" xmlns="http://www.w3.org/2000/svg">
<path d="M361 0.949997C397.383 0.949997 428.426 23.81 440.553 55.95H470C486.569 55.95 500 69.3815 500 85.95C500 102.519 486.569 115.95 470 115.95H440.553C428.426 148.09 397.383 170.95 361 170.95C324.617 170.95 293.574 148.09 281.447 115.95H30C13.4315 115.95 6.18527e-06 102.519 0 85.95C0 69.3815 13.4315 55.95 30 55.95H281.447C293.574 23.81 324.617 0.949997 361 0.949997ZM361 40.95C336.147 40.95 316 61.0972 316 85.95C316 110.803 336.147 130.95 361 130.95C385.853 130.95 406 110.803 406 85.95C406 61.0972 385.853 40.95 361 40.95Z" fill="#D9D9D9"/>
<path d="M320 380.95C356.383 380.95 387.426 403.81 399.553 435.95H470C486.569 435.95 500 449.381 500 465.95C500 482.519 486.569 495.95 470 495.95H399.553C387.426 528.09 356.383 550.95 320 550.95C283.617 550.95 252.574 528.09 240.447 495.95H30C13.4315 495.95 1.44323e-05 482.519 0 465.95C0 449.381 13.4315 435.95 30 435.95H240.447C252.574 403.81 283.617 380.95 320 380.95ZM320 420.95C295.147 420.95 275 441.097 275 465.95C275 490.803 295.147 510.95 320 510.95C344.853 510.95 365 490.803 365 465.95C365 441.097 344.853 420.95 320 420.95Z" fill="#D9D9D9"/>
<path d="M156 190.95C192.383 190.95 223.426 213.81 235.553 245.95H470C486.569 245.95 500 259.381 500 275.95C500 292.519 486.569 305.95 470 305.95H235.553C223.426 338.09 192.384 360.95 156 360.95C119.616 360.95 88.5736 338.09 76.4473 305.95H30C13.4315 305.95 0 292.519 0 275.95C1.64931e-05 259.381 13.4315 245.95 30 245.95H76.4473C88.5736 213.81 119.617 190.95 156 190.95ZM156 230.95C131.147 230.95 111 251.097 111 275.95C111 300.803 131.147 320.95 156 320.95C180.853 320.95 201 300.803 201 275.95C201 251.097 180.853 230.95 156 230.95Z" fill="#D9D9D9"/>
</svg>
