<svg width="157" height="157" viewBox="0 0 157 157" fill="none" xmlns="http://www.w3.org/2000/svg">
<path d="M142.443 0.0289307C150.285 -0.488938 156.789 6.01621 156.271 13.858L152.57 69.8844C152.362 73.0292 151.019 75.9918 148.791 78.2203L74.5185 152.493C69.4416 157.57 61.2105 157.57 56.1337 152.493L3.80753 100.168C-1.26923 95.0908 -1.26911 86.8597 3.80753 81.7828L78.081 7.5094C80.3094 5.28109 83.2714 3.93785 86.4159 3.7301L142.443 0.0289307ZM127.552 28.7496C117.789 18.9866 101.959 18.9866 92.1962 28.7496C82.4331 38.5127 82.4331 54.342 92.1962 64.1051C101.959 73.868 117.789 73.8681 127.552 64.1051C137.315 54.3421 137.315 38.5127 127.552 28.7496Z" fill="#D9D9D9"/>
</svg>
